<mxfile host="app.diagrams.net" modified="2023-03-16T02:52:29.898Z" agent="5.0 (Macintosh; Intel Mac OS X 10_15_7) AppleWebKit/537.36 (KHTML, like Gecko) Chrome/111.0.0.0 Safari/537.36" etag="14TwEjYMmmblzIhxXPl9" version="21.0.6" type="github">
  <diagram name="第 1 页" id="2mRQ52QLlzKnQliinkt1">
    <mxGraphModel dx="984" dy="590" grid="1" gridSize="10" guides="1" tooltips="1" connect="1" arrows="1" fold="1" page="1" pageScale="1" pageWidth="827" pageHeight="1169" math="0" shadow="0">
      <root>
        <mxCell id="0" />
        <mxCell id="1" parent="0" />
        <mxCell id="mOGSaVw1MvXez0ik0sxi-4" value="" style="rounded=0;orthogonalLoop=1;jettySize=auto;html=1;endArrow=none;endFill=0;" edge="1" parent="1" source="mOGSaVw1MvXez0ik0sxi-1" target="mOGSaVw1MvXez0ik0sxi-3">
          <mxGeometry relative="1" as="geometry" />
        </mxCell>
        <mxCell id="mOGSaVw1MvXez0ik0sxi-1" value="Use Case" style="ellipse;whiteSpace=wrap;html=1;" vertex="1" parent="1">
          <mxGeometry x="160" y="290" width="110" height="60" as="geometry" />
        </mxCell>
        <mxCell id="mOGSaVw1MvXez0ik0sxi-3" value="Use Case" style="ellipse;whiteSpace=wrap;html=1;" vertex="1" parent="1">
          <mxGeometry x="50" y="380" width="110" height="60" as="geometry" />
        </mxCell>
      </root>
    </mxGraphModel>
  </diagram>
</mxfile>
